 <svg version="1.0" xmlns="http://www.w3.org/2000/svg" width="700.000000pt" height="351.000000pt" viewBox="0 0 700.000000 351.000000" preserveAspectRatio="xMidYMid meet">
<metadata>
Created by potrace 1.12, written by Peter Selinger 2001-2015
</metadata>
<g transform="translate(0.000000,351.000000) scale(0.100000,-0.100000)" fill="#000000" stroke="none">
<path d="M4760 3444 c-455 -48 -844 -157 -1158 -325 -129 -69 -177 -102 -281
-197 -94 -86 -183 -212 -200 -282 -25 -103 -41 -180 -41 -200 0 -44 24 -12 47
61 77 256 350 379 590 267 68 -31 163 -130 193 -200 14 -32 30 -58 36 -58 6 0
25 44 43 98 61 181 131 305 240 424 107 117 256 217 406 273 230 87 599 88
825 2 85 -32 253 -115 321 -159 168 -108 317 -286 393 -471 55 -133 99 -255
118 -327 43 -160 30 -496 -27 -693 -95 -329 -349 -591 -678 -702 -98 -33 -111
-32 -135 8 -10 17 -101 166 -201 330 -99 164 -181 302 -181 307 0 9 234 372
402 622 43 65 78 120 78 123 0 3 -163 4 -362 3 l-362 -3 -41 -95 c-23 -52 -62
-135 -86 -185 l-44 -90 -3 188 -2 187 -344 0 -343 0 -7 -46 c-3 -26 -6 -377
-6 -780 l0 -734 340 0 c187 0 343 -1 348 -2 4 -2 9 94 12 212 6 243 -1 241 80
30 28 -74 60 -159 72 -188 l20 -52 362 0 362 0 151 49 c303 100 505 200 712
355 249 185 421 425 483 671 32 128 32 332 0 460 -53 212 -146 389 -292 555
-279 315 -688 514 -1178 570 -120 14 -511 10 -662 -6z"></path>
<path d="M3447 2686 c-97 -35 -166 -113 -188 -212 -31 -139 64 -291 202 -324
131 -32 259 26 322 144 31 59 31 193 0 252 -63 118 -217 182 -336 140z"></path>
<path d="M35 2337 c-7 -16 -2 -1544 5 -1549 3 -2 161 -2 352 0 l348 4 2 219 3
220 79 -221 79 -220 369 0 c293 0 368 3 362 12 -4 7 -63 102 -131 211 -275
441 -364 590 -359 602 2 7 111 171 240 363 130 193 236 356 236 361 0 8 -110
11 -354 11 l-354 0 -16 -40 c-9 -23 -47 -109 -84 -193 l-67 -152 -5 190 -5
190 -348 3 c-275 2 -349 0 -352 -11z"></path>
<path d="M1710 2343 c0 -5 -1 -356 -2 -781 l-1 -774 684 2 c523 0 685 4 691
13 9 14 11 378 2 401 -5 14 -45 16 -340 16 l-334 0 -2 563 -3 562 -347 3
c-192 1 -348 -1 -348 -5z"></path>
<path d="M3220 1435 l0 -645 295 0 295 0 0 645 0 646 -52 -36 c-66 -45 -163
-75 -238 -75 -75 0 -175 31 -240 75 -29 19 -54 35 -56 35 -2 0 -4 -290 -4
-645z"></path>
<path d="M1505 636 c-172 -82 -229 -322 -118 -499 44 -71 152 -127 243 -127
101 0 215 72 259 164 88 181 10 413 -157 470 -70 24 -167 21 -227 -8z m223
-44 c50 -37 84 -118 89 -220 12 -202 -69 -329 -203 -319 -66 4 -107 34 -141
100 -23 45 -28 67 -31 158 -5 131 12 202 64 259 55 61 153 71 222 22z"></path>
<path d="M2734 637 c-62 -30 -115 -83 -145 -145 -34 -70 -38 -207 -10 -283 48
-126 147 -194 281 -193 84 0 139 22 198 78 61 56 85 119 90 226 5 118 -19 191
-82 254 -60 60 -107 80 -201 84 -68 2 -88 -1 -131 -21z m224 -45 c122 -87 120
-414 -4 -508 -32 -25 -47 -29 -99 -29 -52 0 -67 4 -97 27 -72 55 -109 190 -89
325 23 156 99 231 217 213 22 -4 55 -16 72 -28z"></path>
<path d="M3402 630 c-68 -35 -115 -82 -146 -149 -17 -37 -21 -65 -21 -146 0
-81 4 -109 21 -146 31 -66 78 -114 142 -146 76 -37 183 -39 289 -4 l72 23 3
97 3 96 35 11 c19 6 36 19 38 28 3 14 -13 16 -133 16 -124 0 -136 -2 -133 -17
2 -12 16 -20 42 -24 21 -3 42 -12 47 -20 5 -8 9 -47 9 -86 0 -66 -2 -74 -25
-89 -30 -20 -92 -29 -140 -20 -54 10 -119 75 -146 144 -27 71 -30 213 -5 281
48 133 179 190 276 121 30 -21 90 -127 90 -157 0 -7 9 -13 20 -13 18 0 20 7
20 64 0 133 -17 181 -49 142 -11 -12 -18 -12 -54 5 -29 13 -65 19 -118 19 -65
0 -85 -4 -137 -30z"></path>
<path d="M4761 638 c-140 -360 -204 -518 -219 -538 -11 -14 -31 -29 -45 -34
-49 -18 -83 9 -178 136 -49 66 -89 122 -89 126 1 4 24 18 51 31 63 29 89 68
89 136 0 63 -25 105 -76 131 -33 16 -66 19 -221 22 -156 3 -183 1 -183 -11 0
-8 12 -18 27 -22 54 -13 53 -9 53 -279 0 -271 -1 -276 -52 -276 -18 0 -28 -5
-28 -15 0 -13 21 -15 130 -15 109 0 130 2 130 15 0 10 -10 15 -30 15 -49 0
-62 32 -58 147 l3 98 31 3 c29 3 37 -4 101 -91 38 -52 82 -115 99 -140 l29
-47 183 0 c155 0 182 2 182 15 0 9 -9 15 -23 15 -12 0 -32 7 -44 15 -18 13
-20 19 -12 56 5 22 16 56 24 75 l14 34 110 0 110 0 21 -57 c36 -98 37 -111 4
-118 -47 -11 -54 -14 -54 -25 0 -6 47 -10 130 -10 109 0 130 2 130 15 0 8 -8
15 -17 15 -43 1 -63 36 -170 315 -111 285 -130 319 -152 263z m-557 -38 c82
-31 80 -184 -4 -233 -14 -9 -51 -17 -81 -19 l-54 -3 -3 133 -3 132 60 0 c33 0
71 -4 85 -10z m599 -195 c19 -49 38 -98 42 -107 6 -16 -1 -18 -84 -18 -50 0
-91 4 -91 9 0 24 84 221 91 214 4 -4 23 -48 42 -98z"></path>
<path d="M50 637 c0 -8 17 -19 39 -25 26 -8 41 -19 45 -35 3 -12 6 -123 6
-247 0 -251 -4 -270 -61 -270 -19 0 -29 -5 -29 -15 0 -13 22 -15 135 -15 113
0 135 2 135 15 0 10 -10 15 -33 15 -52 0 -57 12 -57 131 l0 106 78 5 c58 3 90
11 122 29 140 77 129 263 -17 307 -59 18 -363 16 -363 -1z m322 -47 c36 -28
51 -72 46 -131 -4 -40 -12 -58 -36 -82 -26 -26 -40 -31 -92 -35 l-60 -4 0 136
0 136 59 0 c43 0 65 -5 83 -20z"></path>
<path d="M600 635 c0 -8 14 -18 33 -23 53 -14 57 -33 57 -282 0 -251 -4 -270
-61 -270 -19 0 -29 -5 -29 -15 0 -13 21 -15 130 -15 109 0 130 2 130 15 0 9
-9 15 -24 15 -48 0 -56 21 -56 151 l0 119 145 0 145 0 0 -123 c0 -133 -5 -147
-52 -147 -18 0 -28 -5 -28 -15 0 -13 21 -15 130 -15 109 0 130 2 130 15 0 8
-9 15 -21 15 -11 0 -29 5 -40 10 -18 10 -19 24 -19 270 l0 259 40 12 c22 7 40
18 40 26 0 10 -28 13 -130 13 -102 0 -130 -3 -130 -13 0 -8 18 -21 40 -30 l40
-15 0 -111 0 -111 -145 0 -145 0 0 109 c0 116 3 124 53 136 15 4 27 13 27 21
0 11 -26 14 -130 14 -108 0 -130 -3 -130 -15z"></path>
<path d="M1970 565 c0 -99 16 -113 51 -42 38 74 55 87 121 87 l58 0 0 -255 c0
-242 -1 -256 -20 -275 -11 -11 -33 -20 -50 -20 -20 0 -30 -5 -30 -15 0 -13 23
-15 145 -15 116 0 145 3 145 14 0 8 -15 16 -36 19 -66 11 -64 3 -64 288 l0
259 55 0 c63 0 89 -20 122 -91 11 -23 25 -39 36 -39 16 0 18 9 15 83 l-3 82
-272 3 -273 2 0 -85z"></path>
<path d="M5120 636 c0 -8 14 -17 33 -21 58 -13 57 -7 57 -276 0 -269 -2 -279
-56 -279 -15 0 -24 -6 -24 -15 0 -13 21 -15 130 -15 109 0 130 2 130 15 0 10
-10 15 -29 15 -52 0 -61 20 -61 136 l0 104 56 0 c78 0 136 17 179 53 46 38 65
81 65 148 0 46 -4 55 -38 89 -21 21 -55 43 -77 49 -22 6 -113 11 -202 11 -134
0 -163 -3 -163 -14z m336 -60 c34 -34 40 -57 34 -126 -6 -70 -59 -110 -145
-110 l-45 0 0 135 0 135 61 0 c56 0 64 -3 95 -34z"></path>
<path d="M5680 636 c0 -8 10 -18 23 -22 57 -17 57 -16 57 -280 0 -263 -2 -274
-56 -274 -15 0 -24 -6 -24 -15 0 -13 21 -15 125 -15 104 0 125 2 125 15 0 8
-8 15 -18 15 -10 0 -28 7 -40 16 -21 14 -22 22 -22 135 l0 119 150 0 150 0 0
-117 c0 -65 -4 -124 -9 -131 -5 -8 -23 -17 -41 -21 -19 -3 -35 -12 -38 -19 -3
-9 28 -12 127 -12 110 0 131 2 131 15 0 9 -9 15 -23 15 -13 0 -31 8 -40 18
-15 16 -17 50 -17 264 0 263 -1 260 53 273 15 4 27 14 27 21 0 12 -23 14 -127
12 -85 -2 -128 -7 -130 -15 -2 -6 10 -14 26 -18 50 -11 61 -37 61 -147 l0 -98
-150 0 -150 0 0 109 c0 116 3 124 53 136 15 4 27 13 27 21 0 11 -25 14 -125
14 -102 0 -125 -3 -125 -14z"></path>
<path d="M6350 636 c0 -8 13 -19 29 -24 38 -13 65 -52 144 -202 l66 -125 2
-99 c3 -109 -5 -126 -63 -126 -18 0 -28 -5 -28 -15 0 -13 23 -15 145 -15 122
0 145 2 145 15 0 10 -10 15 -28 15 -15 0 -38 7 -50 16 -20 14 -22 23 -22 112
l0 98 67 118 c75 132 130 201 169 210 14 4 24 12 21 19 -6 18 -217 22 -217 4
0 -7 17 -18 37 -23 21 -5 39 -16 41 -24 2 -14 -106 -210 -132 -237 -9 -10 -27
16 -79 116 -65 124 -67 130 -48 140 11 6 29 11 40 11 12 0 21 7 21 15 0 13
-21 15 -130 15 -105 0 -130 -3 -130 -14z"></path>
</g>
</svg>